<svg width="49" height="48" viewBox="0 0 49 48" fill="none" xmlns="http://www.w3.org/2000/svg">
<path d="M7.0821 29.0972C7.0821 29.7274 7.17587 30.3579 7.39948 31.1069L7.46393 31.3198C8.41206 34.1483 11.0231 36.0483 13.9581 36.0483H40.5723L38.921 41.3579C38.4533 43.1636 36.7849 44.3892 34.9591 44.3892C34.6029 44.3889 34.2481 44.3431 33.9034 44.2524L5.55378 36.5767C3.36684 35.9668 2.06309 33.6779 2.63483 31.4702L7.0821 16.4595V29.0972ZM41.9161 3.61084C44.4425 3.61084 46.4999 5.69052 46.5001 8.24463V28.6343C46.4999 31.1885 44.4425 33.2681 41.9161 33.2681H14.4161C11.8901 33.2681 9.83226 31.1885 9.8321 28.6343V8.24463C9.83229 5.69052 11.8901 3.61084 14.4161 3.61084H41.9161ZM14.4161 7.31787C13.9103 7.31787 13.4992 7.733 13.4991 8.24463V25.7407L18.5596 20.6265C19.8119 19.359 21.8527 19.3589 23.1065 20.6265L25.3243 22.8638L32.1339 14.6011C32.7425 13.8632 33.6334 13.4365 34.5831 13.4312C35.5382 13.4531 36.4277 13.8425 37.0421 14.5708L42.8331 21.4038V8.24463C42.8329 7.73304 42.4222 7.31787 41.9161 7.31787H14.4161ZM18.9991 9.17139C21.0214 9.17139 22.666 10.8339 22.6661 12.8784C22.6661 14.9229 21.0214 16.5854 18.9991 16.5854C16.977 16.5852 15.3331 14.9227 15.3331 12.8784C15.3331 10.8342 16.977 9.17162 18.9991 9.17139Z" fill="#A3A3A3"/>
</svg>
